<svg width="2745" height="288" viewBox="0 0 2745 288" fill="none" xmlns="http://www.w3.org/2000/svg">
<path fill-rule="evenodd" clip-rule="evenodd" d="M144.052 288C124.14 288 105.419 284.221 87.888 276.664C70.36 269.107 55.112 258.851 42.144 245.896C29.176 232.941 18.9107 217.707 11.348 200.192C3.78266 182.68 0 163.967 0 144.052C0 124.14 3.77867 105.419 11.336 87.888C18.8933 70.36 29.1493 55.112 42.104 42.144C55.0587 29.176 70.2933 18.9107 87.808 11.348C105.32 3.78266 124.033 0 143.948 0C163.86 0 182.581 3.77868 200.112 11.336C217.64 18.8933 232.888 29.1493 245.856 42.104C258.824 55.0587 269.089 70.2933 276.652 87.808C284.217 105.32 288 124.033 288 143.948C288 163.86 284.221 182.581 276.664 200.112C269.107 217.64 258.851 232.888 245.896 245.856C232.941 258.824 217.707 269.089 200.192 276.652C182.68 284.217 163.967 288 144.052 288ZM144 272C179.733 272 210 259.6 234.8 234.8C259.6 210 272 179.733 272 144C272 108.267 259.6 78 234.8 53.2C220.045 38.445 203.355 28.0793 184.73 22.103C167.494 49.5018 154.814 80.0686 148.515 116.587H188.678C188.678 173.571 157.747 225.867 106.18 266.79C118.021 270.263 130.628 272 144 272ZM99.4214 171.413C99.4214 114.439 130.341 62.1512 181.893 21.231C170.031 17.7437 157.4 16 144 16C108.267 16 78 28.4 53.2 53.2C28.4 78 16 108.267 16 144C16 179.733 28.4 210 53.2 234.8C67.9768 249.577 84.6944 259.951 103.353 265.923C120.597 238.518 133.283 207.943 139.585 171.413H99.4214ZM2652.09 176C2658.23 177.024 2664.89 177.536 2671.55 177.536C2713.53 177.536 2730.43 160.128 2730.43 130.176C2730.43 124.032 2729.66 118.4 2728.12 113.792L2744.51 100.992L2736.31 82.0481L2709.95 90.4961C2698.94 84.0961 2684.6 82.0481 2671.29 82.0481C2628.28 82.0481 2611.9 102.016 2611.9 130.176C2611.9 147.84 2618.55 159.36 2628.79 166.784C2615.99 172.928 2610.11 183.168 2610.11 193.408C2610.11 203.904 2615.23 211.328 2621.88 216.192C2613.95 223.104 2609.85 232.064 2609.85 241.28C2609.85 264.832 2628.28 282.24 2672.83 282.24C2723.26 282.24 2743.99 263.04 2743.99 232.064C2743.99 208.256 2730.17 194.688 2693.82 192.64L2656.95 190.592C2650.04 190.08 2646.71 187.264 2646.71 183.424C2646.71 180.608 2648.76 177.792 2652.09 176ZM2650.04 223.616L2686.91 226.176C2704.31 227.456 2708.41 230.784 2708.41 237.952C2708.41 246.656 2701.24 252.288 2672.06 252.288C2651.83 252.288 2643.64 246.912 2643.64 236.16C2643.64 232.064 2645.95 227.456 2650.04 223.616ZM2651.07 131.2C2651.07 117.632 2656.44 112 2671.8 112C2686.39 112 2692.28 116.864 2692.28 130.944C2692.28 145.024 2687.42 150.144 2670.78 150.144C2659 150.144 2651.07 146.304 2651.07 131.2ZM2589.14 240H2549.46V141.184C2549.46 124.032 2540.75 117.12 2524.37 117.12C2514.39 117.12 2503.63 121.472 2498.26 128.896V240H2458.32V85.632L2486.99 83.84L2492.88 97.152C2504.4 87.168 2519.51 81.792 2535.63 81.792C2568.4 81.792 2589.14 102.528 2589.14 141.184V240ZM2386.3 240H2427V84.096L2386.3 85.888V240ZM2406.78 68.224C2422.4 68.224 2429.31 62.592 2429.31 51.328C2429.31 40.064 2422.4 34.176 2406.78 34.176C2391.42 34.176 2384 40.32 2384 51.328C2384 63.872 2391.42 68.224 2406.78 68.224ZM2356.63 240H2316.95V141.184C2316.95 124.032 2308.24 117.12 2291.86 117.12C2281.88 117.12 2271.12 121.472 2265.75 128.896V240H2225.81V85.632L2254.48 83.84L2260.37 97.152C2271.89 87.168 2287 81.792 2303.12 81.792C2335.89 81.792 2356.63 102.528 2356.63 141.184V240ZM2174.53 114.56H2209.09V84.8641H2174.53V46.9761L2143.3 49.7921L2136.64 84.8641H2117.44V114.56H2134.85V195.2C2134.85 224.64 2149.95 242.56 2180.93 242.56C2191.94 242.56 2202.18 240.512 2207.55 238.208L2205.25 209.28C2202.43 210.304 2197.06 211.072 2192.96 211.072C2180.67 211.072 2174.53 205.952 2174.53 193.92V114.56ZM2106.89 240H2067.21V141.184C2067.21 125.312 2059.28 117.12 2042.38 117.12C2030.86 117.12 2020.88 122.24 2016.01 128.896V240H1976.33V40.8319L2016.01 38.7839V74.1119L2015.5 94.5919L2016.27 95.1039C2027.79 85.3759 2041.87 81.7919 2054.92 81.7919C2087.69 81.7919 2106.89 103.808 2106.89 141.184V240ZM1867.81 176C1873.95 177.024 1880.61 177.536 1887.27 177.536C1929.25 177.536 1946.15 160.128 1946.15 130.176C1946.15 124.032 1945.38 118.4 1943.84 113.792L1960.23 100.992L1952.03 82.0481L1925.67 90.4961C1914.66 84.0961 1900.32 82.0481 1887.01 82.0481C1844 82.0481 1827.62 102.016 1827.62 130.176C1827.62 147.84 1834.27 159.36 1844.51 166.784C1831.71 172.928 1825.83 183.168 1825.83 193.408C1825.83 203.904 1830.95 211.328 1837.6 216.192C1829.67 223.104 1825.57 232.064 1825.57 241.28C1825.57 264.832 1844 282.24 1888.55 282.24C1938.98 282.24 1959.71 263.04 1959.71 232.064C1959.71 208.256 1945.89 194.688 1909.54 192.64L1872.67 190.592C1865.76 190.08 1862.43 187.264 1862.43 183.424C1862.43 180.608 1864.48 177.792 1867.81 176ZM1865.76 223.616L1902.63 226.176C1920.03 227.456 1924.13 230.784 1924.13 237.952C1924.13 246.656 1916.96 252.288 1887.78 252.288C1867.55 252.288 1859.36 246.912 1859.36 236.16C1859.36 232.064 1861.67 227.456 1865.76 223.616ZM1866.79 131.2C1866.79 117.632 1872.16 112 1887.52 112C1902.11 112 1908 116.864 1908 130.944C1908 145.024 1903.14 150.144 1886.5 150.144C1874.72 150.144 1866.79 146.304 1866.79 131.2ZM1798.6 240H1757.9V85.888L1798.6 84.096V240ZM1800.91 51.328C1800.91 62.592 1794 68.224 1778.38 68.224C1763.02 68.224 1755.6 63.872 1755.6 51.328C1755.6 40.32 1763.02 34.176 1778.38 34.176C1794 34.176 1800.91 40.064 1800.91 51.328ZM1737.84 201.088H1658.74V48H1615.22V240H1736.82L1737.84 201.088ZM1599.16 228.48L1593.53 242.56C1580.22 234.368 1566.14 223.872 1552.57 212.096C1537.98 229.76 1518.52 243.072 1493.18 243.072C1457.34 243.072 1443.51 220.288 1443.51 193.92C1443.51 166.016 1461.18 147.328 1480.63 131.968C1469.88 115.072 1463.48 98.944 1463.48 86.4C1463.48 63.104 1476.28 44.928 1506.75 44.928C1532.6 44.928 1546.17 58.24 1546.17 76.928C1546.17 99.968 1525.69 115.328 1499.83 134.528C1513.15 152.96 1531.07 172.672 1550.52 190.336C1559.99 175.488 1566.39 158.592 1568.95 144L1582.27 143.744C1580.73 158.336 1573.82 180.352 1561.27 200.064C1573.82 210.816 1586.62 220.544 1599.16 228.48ZM1495.48 227.968C1513.4 227.968 1529.27 217.472 1541.56 202.624C1521.59 184.192 1502.65 163.456 1488.57 143.744C1472.44 157.056 1459.13 172.16 1459.13 193.152C1459.13 215.168 1474.23 227.968 1495.48 227.968ZM1478.07 86.4C1478.07 96.128 1483.45 108.928 1492.41 123.264L1493.54 122.431C1514.27 107.208 1530.81 95.0492 1531.07 77.952C1531.07 65.408 1521.85 57.728 1506.23 57.728C1490.11 57.728 1478.07 68.224 1478.07 86.4ZM1332.15 240H1372.09V162.176C1372.09 136.32 1387.45 121.216 1408.18 121.216C1414.33 121.216 1420.22 122.24 1425.08 123.776L1427.64 84.608C1423.54 83.328 1417.66 82.304 1410.74 82.304C1393.08 82.304 1377.98 91.52 1368.25 110.208H1367.48L1363.9 84.352L1332.15 85.888V240ZM1257.67 242.816C1204.17 242.816 1180.36 214.656 1180.36 160.384C1180.36 110.976 1202.12 82.0481 1248.71 82.0481C1288.39 82.0481 1312.71 105.088 1312.71 154.24C1312.71 160.128 1312.46 167.552 1311.69 172.928H1221.32C1223.37 198.784 1235.91 208.512 1262.54 208.512C1277.13 208.512 1290.7 205.952 1304.01 200.832L1308.36 232.832C1295.3 238.72 1277.38 242.816 1257.67 242.816ZM1220.55 146.56H1276.36C1275.85 123.776 1265.61 115.072 1248.97 115.072C1229.77 115.072 1222.34 124.032 1220.55 146.56ZM1128.95 240H1159.93V38.7839L1120.25 40.8319V74.8799L1120.76 95.3599L1120.25 95.8719C1110.01 86.6559 1096.95 81.7919 1082.36 81.7919C1042.94 81.7919 1023.48 110.72 1023.48 161.664C1023.48 217.216 1042.94 243.072 1082.87 243.072C1101.56 243.072 1115.13 237.184 1124.34 226.432L1125.11 226.688L1128.95 240ZM1094.14 117.376C1105.91 117.376 1115.38 122.24 1120.25 129.152V197.76C1116.66 204.16 1108.47 210.816 1093.88 210.816C1071.35 210.816 1064.44 199.808 1064.44 163.456C1064.44 128.64 1072.38 117.376 1094.14 117.376ZM1005.33 240H965.648V141.184C965.648 124.032 956.944 117.12 940.56 117.12C930.576 117.12 919.824 121.472 914.448 128.896V240H874.512V85.632L903.184 83.84L909.072 97.152C920.592 87.168 935.696 81.792 951.824 81.792C984.592 81.792 1005.33 102.528 1005.33 141.184V240ZM849.406 185.216V84.864H809.726V184.448C809.726 200.32 801.534 207.744 784.126 207.744C766.718 207.744 758.526 199.808 758.526 184.448V84.864H718.846V185.216C718.846 222.08 740.094 242.816 784.126 242.816C828.158 242.816 849.406 222.848 849.406 185.216ZM695.342 240H655.662V141.184C655.662 125.312 647.726 117.12 630.83 117.12C619.31 117.12 609.326 122.24 604.462 128.896V240H564.782V40.8319L604.462 38.7839V74.1119L603.95 94.5919L604.718 95.1039C616.238 85.3759 630.318 81.7919 643.374 81.7919C676.142 81.7919 695.342 103.808 695.342 141.184V240ZM498.048 86.912H549.76L548.736 48H404.096L403.072 86.912H454.528V240H498.048V86.912Z" fill="#182663"/>
</svg>
